<?xml version="1.0" encoding="utf-8"?>
<!-- Generator: Adobe Illustrator 12.0.0, SVG Export Plug-In . SVG Version: 6.00 Build 51448)  -->
<!DOCTYPE svg PUBLIC "-//W3C//DTD SVG 1.1//EN" "http://www.w3.org/Graphics/SVG/1.1/DTD/svg11.dtd" [
	<!ENTITY ns_svg "http://www.w3.org/2000/svg">
	<!ENTITY ns_xlink "http://www.w3.org/1999/xlink">
]>
<svg  version="1.1" id="Layer_2" xmlns="&ns_svg;" xmlns:xlink="&ns_xlink;" width="546.407" height="197.25"
	 viewBox="0 0 546.407 197.25" overflow="visible" enable-background="new 0 0 546.407 197.25" xml:space="preserve">
<polygon points="14,184.722 14,39.25 0,39.25 0,197.25 161.333,197.25 161.333,184.722 "/>
<polygon fill="#5C88DA" points="163.083,39 163.083,127.25 203.083,127.25 203.083,0 71.5,0 71.5,39 "/>
<g>
	<path d="M58.927,117.719l5.063,0.688c-0.553,3.451-1.967,6.152-4.244,8.104c-2.277,1.952-5.073,2.928-8.389,2.928
		c-4.154,0-7.493-1.346-10.018-4.039c-2.525-2.693-3.787-6.555-3.787-11.582c0-3.25,0.542-6.095,1.628-8.533
		c1.085-2.438,2.737-4.267,4.956-5.486c2.219-1.219,4.632-1.828,7.242-1.828c3.294,0,5.989,0.828,8.084,2.482
		s3.437,4.004,4.028,7.049l-5,0.75c-0.477-2.021-1.319-3.543-2.529-4.563c-1.209-1.021-2.671-1.531-4.385-1.531
		c-2.59,0-4.695,0.922-6.314,2.766c-1.619,1.845-2.428,4.762-2.428,8.753c0,4.048,0.781,6.989,2.344,8.823
		c1.563,1.835,3.602,2.752,6.118,2.752c2.02,0,3.706-0.615,5.06-1.848C57.708,122.172,58.565,120.277,58.927,117.719z"/>
	<path d="M89.111,119.031l5.323,0.688c-0.837,3.079-2.388,5.469-4.651,7.169c-2.264,1.7-5.156,2.55-8.675,2.55
		c-4.433,0-7.948-1.355-10.544-4.068c-2.597-2.712-3.895-6.516-3.895-11.41c0-5.066,1.313-8.997,3.938-11.795
		c2.625-2.797,6.031-4.195,10.216-4.195c4.052,0,7.362,1.37,9.931,4.109s3.853,6.594,3.853,11.562c0,0.303-0.01,0.756-0.029,1.36
		H71.95c0.19,3.313,1.132,5.85,2.827,7.609c1.694,1.761,3.807,2.641,6.339,2.641c1.885,0,3.493-0.494,4.826-1.483
		S88.331,121.199,89.111,119.031z M72.231,110.813h16.938c-0.229-2.535-0.876-4.438-1.942-5.705
		c-1.638-1.967-3.761-2.951-6.369-2.951c-2.361,0-4.347,0.785-5.956,2.355C73.292,106.082,72.402,108.183,72.231,110.813z"/>
	<path d="M98.85,119.75l5.094-0.781c0.285,2.027,1.08,3.581,2.383,4.661c1.303,1.08,3.125,1.62,5.465,1.62
		c2.359,0,4.11-0.478,5.251-1.434c1.142-0.955,1.712-2.076,1.712-3.363c0-1.154-0.509-2.063-1.525-2.727
		c-0.71-0.453-2.464-1.031-5.261-1.73c-3.768-0.945-6.38-1.762-7.836-2.452c-1.456-0.689-2.56-1.644-3.312-2.862
		s-1.128-2.565-1.128-4.039c0-1.342,0.309-2.584,0.928-3.728s1.461-2.093,2.527-2.849c0.8-0.586,1.89-1.082,3.27-1.488
		c1.38-0.406,2.86-0.609,4.44-0.609c2.379,0,4.469,0.34,6.268,1.02s3.127,1.6,3.984,2.76c0.856,1.162,1.447,2.714,1.771,4.658
		l-5.031,0.688c-0.229-1.551-0.89-2.762-1.984-3.632c-1.094-0.87-2.64-1.306-4.638-1.306c-2.36,0-4.044,0.389-5.053,1.164
		c-1.009,0.776-1.513,1.685-1.513,2.726c0,0.663,0.209,1.259,0.628,1.788c0.418,0.549,1.075,1.004,1.97,1.363
		c0.514,0.189,2.026,0.625,4.538,1.307c3.635,0.963,6.173,1.752,7.614,2.367c1.441,0.613,2.572,1.506,3.394,2.678
		c0.821,1.172,1.231,2.627,1.231,4.365c0,1.701-0.5,3.303-1.5,4.805s-2.441,2.664-4.326,3.486c-1.885,0.821-4.017,1.232-6.397,1.232
		c-3.941,0-6.944-0.814-9.01-2.443S99.421,122.951,98.85,119.75z"/>
	<path d="M130.153,128.75V98.656h5.125v30.094H130.153z"/>
</g>
<g>
	<path fill="#5C88DA" d="M236.998,34.225h4.809v36.208h-4.809V34.225z M239.331,34.225h19.685v4.831h-19.685V34.225z
		 M239.331,50.038h17.092v4.831h-17.092V50.038z M239.331,65.602h19.685v4.831h-19.685V65.602z M246.215,28.796l6.507-6.101
		l3.111,3.412l-6.954,5.628L246.215,28.796z"/>
	<path fill="#5C88DA" d="M273.516,70.806c0,0-0.899-0.556-2.699-1.668s-3.194-2.689-4.185-4.731s-1.485-4.408-1.485-7.097v-9.936
		c0-2.689,0.495-5.055,1.485-7.097s2.385-3.623,4.185-4.744s3.886-1.681,6.259-1.681c1.965,0,3.771,0.444,5.422,1.333
		s3.029,2.146,4.138,3.772s1.858,3.511,2.251,5.653h-4.926c-0.299-1.129-0.799-2.137-1.498-3.025s-1.521-1.573-2.463-2.055
		c-0.943-0.481-1.918-0.722-2.924-0.722c-1.398,0-2.625,0.357-3.678,1.071s-1.87,1.714-2.451,3.001
		c-0.582,1.287-0.873,2.785-0.873,4.495v9.936c0,1.693,0.291,3.188,0.873,4.482c0.581,1.295,1.398,2.295,2.451,3.001
		s2.279,1.058,3.678,1.058c1.021,0,2-0.224,2.936-0.672c0.935-0.448,1.752-1.112,2.451-1.992s1.199-1.926,1.498-3.138h4.926
		c-0.393,2.142-1.146,4.026-2.263,5.653s-2.499,2.885-4.149,3.773s-3.449,1.332-5.398,1.332
		C274.703,70.806,273.516,70.806,273.516,70.806z"/>
	<path fill="#5C88DA" d="M300.747,69.15c-1.823-1.104-3.233-2.665-4.231-4.682s-1.497-4.354-1.497-7.01v-10.26
		c0-2.656,0.499-4.993,1.497-7.01s2.408-3.578,4.231-4.682s3.929-1.656,6.318-1.656c2.389,0,4.495,0.552,6.317,1.656
		c1.824,1.104,3.234,2.665,4.232,4.682s1.497,4.354,1.497,7.01v10.26c0,2.656-0.499,4.993-1.497,7.01s-2.408,3.578-4.232,4.682
		c-1.822,1.104-3.929,1.656-6.317,1.656C304.675,70.806,302.57,70.254,300.747,69.15z M310.801,64.792
		c1.077-0.672,1.909-1.627,2.499-2.864s0.885-2.669,0.885-4.296V47.024c0-1.627-0.295-3.059-0.885-4.295s-1.422-2.191-2.499-2.864
		s-2.322-1.009-3.736-1.009c-1.415,0-2.66,0.336-3.737,1.009c-1.076,0.672-1.909,1.627-2.498,2.864
		c-0.59,1.237-0.885,2.668-0.885,4.295v10.608c0,1.627,0.295,3.059,0.885,4.296c0.589,1.237,1.422,2.191,2.498,2.864
		c1.077,0.672,2.322,1.008,3.737,1.008C308.479,65.801,309.724,65.465,310.801,64.792z"/>
	<path fill="#5C88DA" d="M326.892,34.225h4.81v36.208h-4.81V34.225z M329.296,65.602h19.615v4.831h-19.615V65.602z"/>
	<path fill="#5C88DA" d="M354.57,34.225h4.81v36.208h-4.81V34.225z M356.904,34.225h19.686v4.831h-19.686V34.225z M356.904,50.038
		h17.092v4.831h-17.092V50.038z M356.904,65.602h19.686v4.831h-19.686V65.602z"/>
	<path fill="#5C88DA" d="M236.998,90.425h4.809v36.208h-4.809V90.425z M240.25,121.802h7.756c2.53,0,4.491-0.692,5.881-2.079
		s2.087-3.342,2.087-5.865v-10.658c0-2.523-0.696-4.478-2.087-5.863c-1.391-1.387-3.352-2.08-5.881-2.08h-7.756v-4.831h7.615
		c2.75,0,5.1,0.507,7.048,1.519c1.949,1.014,3.435,2.49,4.456,4.434c1.021,1.941,1.532,4.283,1.532,7.021v10.26
		c0,2.74-0.511,5.08-1.532,7.023c-1.021,1.941-2.511,3.42-4.468,4.432c-1.957,1.014-4.311,1.52-7.06,1.52h-7.591V121.802z"/>
	<path fill="#5C88DA" d="M266.326,90.425h4.81v5.08l-4.81,5.03V90.425z"/>
	<path fill="#5C88DA" d="M282.075,126.633h-4.81V90.425h4.81V126.633z"/>
	<path fill="#5C88DA" d="M290.562,90.425h4.361l16.762,27.99l-0.565,0.647V90.425h4.763v36.183h-4.409l-16.714-27.566l0.564-0.647
		v28.214h-4.762V90.425z"/>
	<path fill="#5C88DA" d="M347.803,107.135v6.324c0,2.689-0.495,5.061-1.485,7.11s-2.393,3.636-4.208,4.757
		c-1.815,1.12-3.917,1.68-6.306,1.68c-2.421,0-4.547-0.526-6.377-1.58c-1.832-1.055-3.25-2.545-4.256-4.471
		s-1.509-4.158-1.509-6.699v-10.683c0-2.689,0.495-5.056,1.485-7.097c0.99-2.043,2.393-3.623,4.208-4.744s3.917-1.682,6.306-1.682
		c1.965,0,3.776,0.445,5.435,1.333s3.045,2.146,4.161,3.772c1.115,1.627,1.87,3.512,2.264,5.652h-5.211
		c-0.283-1.211-0.762-2.253-1.438-3.125c-0.676-0.871-1.471-1.535-2.381-1.992c-0.912-0.456-1.855-0.685-2.83-0.685
		c-1.414,0-2.656,0.356-3.725,1.071c-1.068,0.713-1.894,1.714-2.475,3c-0.582,1.287-0.873,2.785-0.873,4.495v10.683
		c0,1.561,0.299,2.927,0.896,4.098c0.597,1.17,1.441,2.078,2.533,2.727c1.093,0.646,2.354,0.971,3.785,0.971
		c1.414,0,2.655-0.336,3.725-1.008c1.068-0.673,1.894-1.648,2.475-2.927c0.582-1.278,0.873-2.798,0.873-4.558v-1.568h-6.955v-4.855
		H347.803z"/>
	<path fill="#5C88DA" d="M355.583,90.425h4.81v36.208h-4.81V90.425z M357.917,90.425h19.686v4.831h-19.686V90.425z M357.917,106.238
		h17.092v4.83h-17.092V106.238z M357.917,121.802h19.686v4.831h-19.686V121.802z M364.802,84.996l6.506-6.102l3.112,3.412
		l-6.954,5.628L364.802,84.996z"/>
	<path fill="#5C88DA" d="M384.441,90.425h4.361l16.762,27.99l-0.565,0.647V90.425h4.763v36.183h-4.409l-16.714-27.566l0.564-0.647
		v28.214h-4.762V90.425z"/>
	<path fill="#5C88DA" d="M423.058,126.633h-4.809V90.425h4.809V126.633z"/>
	<path fill="#5C88DA" d="M431.546,90.425h4.809v36.208h-4.809V90.425z M433.879,90.425h19.685v4.831h-19.685V90.425z
		 M433.879,106.238h17.092v4.83h-17.092V106.238z M433.879,121.802h19.685v4.831h-19.685V121.802z"/>
	<path fill="#5C88DA" d="M465.46,125.426c-1.801-1.055-3.172-2.59-4.114-4.607c-0.943-2.018-1.415-4.445-1.415-7.284V90.425h4.81
		v23.284c0,2.639,0.628,4.682,1.886,6.125c1.258,1.445,3.033,2.167,5.328,2.167c2.311,0,4.098-0.722,5.363-2.167
		c1.266-1.443,1.898-3.486,1.898-6.125V90.425h4.809v23.109c0,2.839-0.472,5.267-1.414,7.284c-0.943,2.018-2.318,3.553-4.126,4.607
		c-1.808,1.054-3.984,1.58-6.53,1.58C469.424,127.006,467.259,126.479,465.46,125.426z"/>
	<path fill="#5C88DA" d="M492.042,90.4h4.809v36.232h-4.809V90.4z M494.14,106.486h11.693c0.91,0,1.721-0.232,2.428-0.697
		s1.254-1.124,1.639-1.979c0.385-0.855,0.578-1.84,0.578-2.951c0-1.113-0.193-2.096-0.578-2.951s-0.928-1.516-1.627-1.98
		s-1.513-0.697-2.439-0.697H494.14V90.4h11.504c1.98,0,3.721,0.432,5.223,1.295c1.5,0.863,2.664,2.088,3.488,3.673
		c0.826,1.585,1.238,3.415,1.238,5.491c0,2.074-0.416,3.905-1.25,5.49c-0.832,1.586-2,2.811-3.5,3.674
		c-1.502,0.863-3.234,1.295-5.199,1.295H494.14V106.486z M503.476,110.197l4.785-1.146l8.77,17.581h-5.705L503.476,110.197z"/>
	<path fill="#5C88DA" d="M531.342,127.006c0,0-0.739-0.166-2.216-0.498c-1.479-0.332-2.857-0.83-4.138-1.494
		c-1.281-0.664-2.479-1.494-3.595-2.49l2.994-3.885c1.304,1.195,2.742,2.092,4.313,2.689s3.277,0.896,5.116,0.896
		c2.482,0,4.408-0.484,5.775-1.456s2.051-2.345,2.051-4.122v-0.024c0-1.262-0.311-2.262-0.931-3.001
		c-0.621-0.738-1.423-1.286-2.405-1.643c-0.982-0.357-2.251-0.686-3.807-0.984c-0.047-0.017-0.099-0.025-0.153-0.025
		c-0.056,0-0.106-0.008-0.153-0.024l-0.354-0.075c-2.295-0.414-4.161-0.883-5.6-1.406c-1.438-0.523-2.668-1.478-3.689-2.863
		c-1.021-1.387-1.531-3.358-1.531-5.915v-0.024c0-2.242,0.475-4.154,1.426-5.74s2.338-2.793,4.16-3.623
		c1.824-0.83,4.016-1.246,6.578-1.246c1.226,0,2.432,0.142,3.619,0.424c1.186,0.282,2.357,0.701,3.512,1.258
		c1.156,0.557,2.291,1.258,3.407,2.104l-2.735,4.035c-1.305-1.014-2.604-1.772-3.901-2.279c-1.297-0.506-2.597-0.76-3.901-0.76
		c-2.342,0-4.161,0.494-5.457,1.482c-1.297,0.988-1.945,2.387-1.945,4.195v0.025c0,1.245,0.334,2.225,1.002,2.938
		s1.5,1.241,2.498,1.581c0.998,0.341,2.385,0.693,4.162,1.059c0.063,0.017,0.121,0.029,0.176,0.037
		c0.055,0.009,0.114,0.021,0.178,0.037c0.078,0.018,0.164,0.033,0.259,0.051c0.095,0.016,0.181,0.033,0.259,0.049
		c2.074,0.449,3.808,0.98,5.199,1.594c1.391,0.615,2.553,1.607,3.488,2.977s1.403,3.241,1.403,5.615v0.05
		c0,2.208-0.495,4.097-1.485,5.665c-0.99,1.569-2.425,2.765-4.303,3.586c-1.878,0.822-4.145,1.232-6.801,1.232
		C532.167,127.006,531.342,127.006,531.342,127.006z"/>
</g>
</svg>
